<svg height="478" width="720" xmlns="http://www.w3.org/2000/svg">
<rect height="478" fill="#555" width="720"></rect>
<text fill="#7f7" font-family="Courier New" font-size="12" xml:space="preserve">
<tspan x="10" y="26">6 megabytes installed</tspan>
<tspan x="10" y="42"></tspan>
<tspan x="10" y="58">node_modules</tspan>
<tspan x="10" y="74">└─┬ typeset@0.2.2 </tspan>
<tspan x="10" y="90">  ├─┬ cheerio@0.19.0 </tspan>
<tspan x="10" y="106">  │ ├─┬ css-select@1.0.0 </tspan>
<tspan x="10" y="122">  │ │ ├── boolbase@1.0.0 </tspan>
<tspan x="10" y="138">  │ │ ├── css-what@1.0.0 </tspan>
<tspan x="10" y="154">  │ │ ├── domutils@1.4.3 </tspan>
<tspan x="10" y="170">  │ │ └── nth-check@1.0.1 </tspan>
<tspan x="10" y="186">  │ ├─┬ dom-serializer@0.1.0 </tspan>
<tspan x="10" y="202">  │ │ └── domelementtype@1.1.3 </tspan>
<tspan x="10" y="218">  │ ├── entities@1.1.1 </tspan>
<tspan x="10" y="234">  │ ├─┬ htmlparser2@3.8.3 </tspan>
<tspan x="10" y="250">  │ │ ├── domelementtype@1.3.0 </tspan>
<tspan x="10" y="266">  │ │ ├── domhandler@2.3.0 </tspan>
<tspan x="10" y="282">  │ │ ├── domutils@1.5.1 </tspan>
<tspan x="10" y="298">  │ │ ├── entities@1.0.0 </tspan>
<tspan x="10" y="314">  │ │ └─┬ readable-stream@1.1.14 </tspan>
<tspan x="10" y="330">  │ │   ├── core-util-is@1.0.2 </tspan>
<tspan x="10" y="346">  │ │   ├── inherits@2.0.3 </tspan>
<tspan x="10" y="362">  │ │   ├── isarray@0.0.1 </tspan>
<tspan x="10" y="378">  │ │   └── string_decoder@0.10.31 </tspan>
<tspan x="10" y="394">  │ └── lodash@3.10.1 </tspan>
<tspan x="10" y="410">  ├─┬ commander@2.9.0 </tspan>
<tspan x="10" y="426">  │ └── graceful-readlink@1.0.1 </tspan>
<tspan x="10" y="442">  ├── html-entities@1.2.0 </tspan>
<tspan x="10" y="458">  └── hypher@0.2.5</tspan>
</text>
</svg>
